# xmcd CD database file
#
# Track frame offsets:
#	150
#	15590
#	36724
#
# Disc length: 652 seconds
#
# Revision: 0
# Processed by: cddbd v1.5.1PL0 Copyright (c) Steve Scherf et al.
# Submitted via: CDex 1.50Beta7
#
DISCID=20028a03
DTITLE=the pillows - その未来は今
DYEAR=2004
DGENRE=Rock
TTITLE0=その未来は今
TTITLE1=Beehive
TTITLE2=Heavy Sun (with baby son)
EXTD=YEAR: 2004
EXTT0=
EXTT1=
EXTT2=
PLAYORDER=
